<svg width="148" height="24" viewBox="0 0 148 24" fill="none" xmlns="http://www.w3.org/2000/svg">
<path d="M1.424 18V6.4H9.04V7.984H3.184V11.376H8.4V12.992H3.184V16.384H9.264V18H1.424ZM12.499 14.464C12.1257 13.9307 11.7363 13.4027 11.331 12.88C10.9363 12.3573 10.5577 11.8347 10.195 11.312H11.875C12.003 11.5253 12.1257 11.7173 12.243 11.888C12.371 12.0587 12.4937 12.224 12.611 12.384C12.739 12.544 12.8617 12.7093 12.979 12.88C13.107 13.04 13.2403 13.2213 13.379 13.424C13.6457 13.0293 13.8963 12.6827 14.131 12.384C14.3657 12.0747 14.6217 11.7173 14.899 11.312H16.419C16.227 11.6107 16.0403 11.888 15.859 12.144C15.6777 12.3893 15.4963 12.64 15.315 12.896C15.1337 13.1413 14.947 13.3973 14.755 13.664C14.5737 13.92 14.3817 14.208 14.179 14.528C14.371 14.784 14.5737 15.0613 14.787 15.36C15.011 15.6587 15.235 15.9627 15.459 16.272C15.683 16.5707 15.9017 16.8693 16.115 17.168C16.3283 17.4667 16.5257 17.744 16.707 18H14.963C14.6643 17.584 14.371 17.2 14.083 16.848C13.795 16.496 13.5017 16.1173 13.203 15.712C12.9257 16.1173 12.6537 16.496 12.387 16.848C12.1203 17.2 11.8483 17.584 11.571 18H10.051C10.4563 17.392 10.867 16.8 11.283 16.224C11.699 15.6373 12.1043 15.0507 12.499 14.464ZM23.4365 14.64C23.4365 14.3307 23.3885 14.048 23.2925 13.792C23.1965 13.5253 23.0578 13.296 22.8765 13.104C22.6952 12.912 22.4765 12.7627 22.2205 12.656C21.9645 12.5387 21.6765 12.48 21.3565 12.48C21.0365 12.48 20.7378 12.5387 20.4605 12.656C20.1938 12.7627 19.9645 12.912 19.7725 13.104C19.5805 13.296 19.4258 13.5253 19.3085 13.792C19.2018 14.048 19.1485 14.3307 19.1485 14.64C19.1485 14.9493 19.2018 15.2373 19.3085 15.504C19.4258 15.7707 19.5805 16 19.7725 16.192C19.9645 16.384 20.1938 16.5387 20.4605 16.656C20.7378 16.7627 21.0365 16.816 21.3565 16.816C21.6765 16.816 21.9645 16.7627 22.2205 16.656C22.4765 16.5387 22.6952 16.384 22.8765 16.192C23.0578 15.9893 23.1965 15.76 23.2925 15.504C23.3885 15.2373 23.4365 14.9493 23.4365 14.64ZM24.9245 14.672C24.9245 15.1733 24.8392 15.6373 24.6685 16.064C24.4978 16.4907 24.2578 16.8587 23.9485 17.168C23.6392 17.4773 23.2658 17.7227 22.8285 17.904C22.4018 18.0747 21.9325 18.16 21.4205 18.16C21.1538 18.16 20.8978 18.128 20.6525 18.064C20.4178 18.0107 20.1992 17.936 19.9965 17.84C19.7938 17.7333 19.6178 17.6213 19.4685 17.504C19.3192 17.376 19.2072 17.248 19.1325 17.12C19.1325 17.1733 19.1325 17.232 19.1325 17.296C19.1432 17.3493 19.1485 17.4027 19.1485 17.456V21.216H17.7725V11.312H19.1005C19.1005 11.44 19.1058 11.6 19.1165 11.792C19.1378 11.9733 19.1485 12.1387 19.1485 12.288C19.2338 12.16 19.3458 12.032 19.4845 11.904C19.6338 11.7653 19.8045 11.6427 19.9965 11.536C20.1992 11.4187 20.4232 11.3227 20.6685 11.248C20.9138 11.1733 21.1858 11.136 21.4845 11.136C21.9965 11.136 22.4605 11.2213 22.8765 11.392C23.3032 11.552 23.6658 11.7867 23.9645 12.096C24.2738 12.3947 24.5085 12.7627 24.6685 13.2C24.8392 13.6373 24.9245 14.128 24.9245 14.672ZM27.7891 18H26.4291V5.568H27.7891V18ZM29.2616 14.64C29.2616 14.16 29.3523 13.7067 29.5336 13.28C29.7256 12.8533 29.9816 12.4853 30.3016 12.176C30.6216 11.856 30.995 11.6053 31.4216 11.424C31.859 11.232 32.3283 11.136 32.8296 11.136C33.331 11.136 33.795 11.232 34.2216 11.424C34.659 11.6053 35.0323 11.856 35.3416 12.176C35.6616 12.4853 35.907 12.8533 36.0776 13.28C36.259 13.7067 36.3496 14.16 36.3496 14.64C36.3496 15.12 36.259 15.5733 36.0776 16C35.907 16.4267 35.6616 16.8 35.3416 17.12C35.0323 17.44 34.659 17.696 34.2216 17.888C33.795 18.0693 33.3256 18.16 32.8136 18.16C32.323 18.16 31.859 18.0747 31.4216 17.904C30.995 17.7333 30.6216 17.4933 30.3016 17.184C29.9816 16.8747 29.7256 16.5067 29.5336 16.08C29.3523 15.6427 29.2616 15.1627 29.2616 14.64ZM30.6216 14.656C30.6216 14.9547 30.675 15.2373 30.7816 15.504C30.899 15.76 31.0536 15.9893 31.2456 16.192C31.4483 16.384 31.6776 16.5387 31.9336 16.656C32.2003 16.7627 32.483 16.816 32.7816 16.816C33.0803 16.816 33.363 16.7627 33.6296 16.656C33.8963 16.5387 34.1256 16.384 34.3176 16.192C34.5203 15.9893 34.6803 15.76 34.7976 15.504C34.915 15.2373 34.9736 14.9547 34.9736 14.656C34.9736 14.3573 34.915 14.0747 34.7976 13.808C34.6803 13.5413 34.5203 13.312 34.3176 13.12C34.1256 12.9173 33.8963 12.7627 33.6296 12.656C33.363 12.5387 33.0803 12.48 32.7816 12.48C32.483 12.48 32.2003 12.5387 31.9336 12.656C31.6776 12.7627 31.4483 12.9173 31.2456 13.12C31.0536 13.312 30.899 13.5413 30.7816 13.808C30.675 14.0747 30.6216 14.3573 30.6216 14.656ZM41.4838 12.896C41.1851 12.896 40.8971 12.9387 40.6198 13.024C40.3424 13.0987 40.0918 13.216 39.8678 13.376C39.6544 13.536 39.4838 13.7387 39.3558 13.984C39.2278 14.2187 39.1638 14.4907 39.1638 14.8V18H37.8038V11.312H39.0038C39.0251 11.6427 39.0411 11.9467 39.0518 12.224C39.0731 12.4907 39.0944 12.7573 39.1158 13.024C39.2544 12.736 39.4358 12.4747 39.6598 12.24C39.8838 12.0053 40.1238 11.808 40.3798 11.648C40.6358 11.488 40.8864 11.3653 41.1318 11.28C41.3771 11.184 41.5958 11.136 41.7878 11.136L41.4838 12.896ZM48.3115 17.216C47.9915 17.504 47.6022 17.7333 47.1435 17.904C46.6848 18.0747 46.2155 18.16 45.7355 18.16C45.2448 18.16 44.7808 18.0693 44.3435 17.888C43.9168 17.696 43.5435 17.4453 43.2235 17.136C42.9035 16.816 42.6475 16.4427 42.4555 16.016C42.2742 15.5893 42.1835 15.136 42.1835 14.656C42.1835 14.176 42.2742 13.7227 42.4555 13.296C42.6475 12.8693 42.9035 12.496 43.2235 12.176C43.5435 11.856 43.9115 11.6053 44.3275 11.424C44.7542 11.232 45.2075 11.136 45.6875 11.136C46.4448 11.136 47.1008 11.3653 47.6555 11.824C48.2208 12.272 48.6262 12.864 48.8715 13.6C48.5408 13.7173 48.1622 13.8613 47.7355 14.032C47.3088 14.2027 46.8662 14.384 46.4075 14.576C45.9488 14.7573 45.4902 14.9387 45.0315 15.12C44.5728 15.3013 44.1462 15.4667 43.7515 15.616C43.9328 15.9787 44.1942 16.272 44.5355 16.496C44.8875 16.7093 45.2768 16.816 45.7035 16.816C45.9915 16.816 46.2795 16.7627 46.5675 16.656C46.8662 16.5493 47.1062 16.4053 47.2875 16.224L48.3115 17.216ZM47.1595 13.28C47.0315 13.0133 46.8288 12.816 46.5515 12.688C46.2742 12.5493 45.9915 12.48 45.7035 12.48C45.3942 12.48 45.1062 12.5387 44.8395 12.656C44.5835 12.7733 44.3595 12.9333 44.1675 13.136C43.9755 13.328 43.8208 13.552 43.7035 13.808C43.5968 14.064 43.5435 14.3253 43.5435 14.592C43.5435 14.6453 43.5435 14.6827 43.5435 14.704C43.5542 14.7253 43.5595 14.7413 43.5595 14.752C43.8368 14.6453 44.1355 14.528 44.4555 14.4C44.7862 14.2613 45.1115 14.128 45.4315 14C45.7515 13.8613 46.0608 13.7333 46.3595 13.616C46.6582 13.488 46.9248 13.376 47.1595 13.28ZM54.2053 5.888C54.3013 6.03733 54.4986 6.32533 54.7973 6.752C55.1066 7.168 55.4586 7.65333 55.8533 8.208C56.2586 8.76267 56.6853 9.35467 57.1333 9.984C57.5813 10.6027 58.0026 11.1893 58.3973 11.744C58.7919 12.288 59.1333 12.7627 59.4213 13.168C59.7199 13.5733 59.9173 13.84 60.0133 13.968C60.0453 13.9147 60.1466 13.7707 60.3173 13.536C60.4879 13.3013 60.6959 13.008 60.9413 12.656C61.1973 12.304 61.4853 11.9093 61.8053 11.472C62.1253 11.024 62.4506 10.5707 62.7812 10.112C63.1226 9.64267 63.4533 9.17867 63.7733 8.72C64.1039 8.26133 64.4079 7.84533 64.6853 7.472C64.9626 7.088 65.1973 6.75733 65.3893 6.48C65.5919 6.192 65.7359 5.99467 65.8213 5.888V18H63.9653V11.504C63.9653 11.4187 63.9706 11.328 63.9813 11.232C64.0026 11.136 64.0133 11.0667 64.0133 11.024C63.9173 11.152 63.7626 11.3707 63.5493 11.68C63.3466 11.9787 63.1066 12.3253 62.8293 12.72C62.5626 13.104 62.2799 13.5147 61.9813 13.952C61.6826 14.3787 61.3999 14.784 61.1333 15.168C60.8666 15.552 60.6319 15.8933 60.4293 16.192C60.2266 16.48 60.0879 16.6827 60.0133 16.8C59.9386 16.704 59.7893 16.5067 59.5653 16.208C59.3519 15.8987 59.0959 15.5413 58.7973 15.136C58.5093 14.7307 58.1999 14.2987 57.8693 13.84C57.5493 13.3813 57.2506 12.9547 56.9733 12.56C56.6959 12.1653 56.4559 11.8293 56.2533 11.552C56.0506 11.264 55.9333 11.088 55.9013 11.024C55.9013 11.0667 55.9066 11.136 55.9173 11.232C55.9386 11.328 55.9493 11.4187 55.9493 11.504V18H54.2053V5.888ZM67.4335 14.64C67.4335 14.16 67.5242 13.7067 67.7055 13.28C67.8975 12.8533 68.1535 12.4853 68.4735 12.176C68.7935 11.856 69.1668 11.6053 69.5935 11.424C70.0308 11.232 70.5002 11.136 71.0015 11.136C71.5028 11.136 71.9668 11.232 72.3935 11.424C72.8308 11.6053 73.2042 11.856 73.5135 12.176C73.8335 12.4853 74.0788 12.8533 74.2495 13.28C74.4308 13.7067 74.5215 14.16 74.5215 14.64C74.5215 15.12 74.4308 15.5733 74.2495 16C74.0788 16.4267 73.8335 16.8 73.5135 17.12C73.2042 17.44 72.8308 17.696 72.3935 17.888C71.9668 18.0693 71.4975 18.16 70.9855 18.16C70.4948 18.16 70.0308 18.0747 69.5935 17.904C69.1668 17.7333 68.7935 17.4933 68.4735 17.184C68.1535 16.8747 67.8975 16.5067 67.7055 16.08C67.5242 15.6427 67.4335 15.1627 67.4335 14.64ZM68.7935 14.656C68.7935 14.9547 68.8468 15.2373 68.9535 15.504C69.0708 15.76 69.2255 15.9893 69.4175 16.192C69.6202 16.384 69.8495 16.5387 70.1055 16.656C70.3722 16.7627 70.6548 16.816 70.9535 16.816C71.2522 16.816 71.5348 16.7627 71.8015 16.656C72.0682 16.5387 72.2975 16.384 72.4895 16.192C72.6922 15.9893 72.8522 15.76 72.9695 15.504C73.0868 15.2373 73.1455 14.9547 73.1455 14.656C73.1455 14.3573 73.0868 14.0747 72.9695 13.808C72.8522 13.5413 72.6922 13.312 72.4895 13.12C72.2975 12.9173 72.0682 12.7627 71.8015 12.656C71.5348 12.5387 71.2522 12.48 70.9535 12.48C70.6548 12.48 70.3722 12.5387 70.1055 12.656C69.8495 12.7627 69.6202 12.9173 69.4175 13.12C69.2255 13.312 69.0708 13.5413 68.9535 13.808C68.8468 14.0747 68.7935 14.3573 68.7935 14.656ZM79.6556 12.896C79.357 12.896 79.069 12.9387 78.7916 13.024C78.5143 13.0987 78.2636 13.216 78.0396 13.376C77.8263 13.536 77.6556 13.7387 77.5276 13.984C77.3996 14.2187 77.3356 14.4907 77.3356 14.8V18H75.9756V11.312H77.1756C77.197 11.6427 77.213 11.9467 77.2236 12.224C77.245 12.4907 77.2663 12.7573 77.2876 13.024C77.4263 12.736 77.6076 12.4747 77.8316 12.24C78.0556 12.0053 78.2956 11.808 78.5516 11.648C78.8076 11.488 79.0583 11.3653 79.3036 11.28C79.549 11.184 79.7676 11.136 79.9596 11.136L79.6556 12.896ZM86.4834 17.216C86.1634 17.504 85.774 17.7333 85.3154 17.904C84.8567 18.0747 84.3874 18.16 83.9074 18.16C83.4167 18.16 82.9527 18.0693 82.5154 17.888C82.0887 17.696 81.7154 17.4453 81.3954 17.136C81.0754 16.816 80.8194 16.4427 80.6274 16.016C80.446 15.5893 80.3554 15.136 80.3554 14.656C80.3554 14.176 80.446 13.7227 80.6274 13.296C80.8194 12.8693 81.0754 12.496 81.3954 12.176C81.7154 11.856 82.0834 11.6053 82.4994 11.424C82.926 11.232 83.3794 11.136 83.8594 11.136C84.6167 11.136 85.2727 11.3653 85.8274 11.824C86.3927 12.272 86.798 12.864 87.0434 13.6C86.7127 13.7173 86.334 13.8613 85.9074 14.032C85.4807 14.2027 85.038 14.384 84.5794 14.576C84.1207 14.7573 83.662 14.9387 83.2034 15.12C82.7447 15.3013 82.318 15.4667 81.9234 15.616C82.1047 15.9787 82.366 16.272 82.7074 16.496C83.0594 16.7093 83.4487 16.816 83.8754 16.816C84.1634 16.816 84.4514 16.7627 84.7394 16.656C85.038 16.5493 85.278 16.4053 85.4594 16.224L86.4834 17.216ZM85.3314 13.28C85.2034 13.0133 85.0007 12.816 84.7234 12.688C84.446 12.5493 84.1634 12.48 83.8754 12.48C83.566 12.48 83.278 12.5387 83.0114 12.656C82.7554 12.7733 82.5314 12.9333 82.3394 13.136C82.1474 13.328 81.9927 13.552 81.8754 13.808C81.7687 14.064 81.7154 14.3253 81.7154 14.592C81.7154 14.6453 81.7154 14.6827 81.7154 14.704C81.726 14.7253 81.7314 14.7413 81.7314 14.752C82.0087 14.6453 82.3074 14.528 82.6274 14.4C82.958 14.2613 83.2834 14.128 83.6034 14C83.9234 13.8613 84.2327 13.7333 84.5314 13.616C84.83 13.488 85.0967 13.376 85.3314 13.28Z" fill="white"/>
<path d="M147.354 15.3536C147.549 15.1583 147.549 14.8417 147.354 14.6464L144.172 11.4645C143.976 11.2692 143.66 11.2692 143.464 11.4645C143.269 11.6597 143.269 11.9763 143.464 12.1716L146.293 15L143.464 17.8284C143.269 18.0237 143.269 18.3403 143.464 18.5355C143.66 18.7308 143.976 18.7308 144.172 18.5355L147.354 15.3536ZM107 15.5H147V14.5H107V15.5Z" fill="#FD6F3D"/>
</svg>
