<svg width="87" height="18" viewBox="0 0 87 18" fill="none" xmlns="http://www.w3.org/2000/svg">
<path d="M14.49 9.019V16.011C13.846 16.379 13.0793 16.6703 12.19 16.885C11.3007 17.0843 10.396 17.184 9.476 17.184C8.15733 17.184 6.969 16.977 5.911 16.563C4.86833 16.149 3.97133 15.5817 3.22 14.861C2.46867 14.125 1.89367 13.2587 1.495 12.262C1.09633 11.2653 0.897 10.1767 0.897 8.996C0.897 7.69267 1.127 6.50433 1.587 5.431C2.06233 4.34233 2.69867 3.407 3.496 2.625C4.30867 1.843 5.23633 1.23733 6.279 0.807999C7.337 0.363332 8.45633 0.140999 9.637 0.140999C10.4343 0.140999 11.27 0.248332 12.144 0.462999C13.018 0.662333 13.777 0.953666 14.421 1.337L13.202 3.384C12.972 3.246 12.7037 3.12333 12.397 3.016C12.1057 2.90867 11.799 2.81667 11.477 2.74C11.155 2.66333 10.833 2.60967 10.511 2.579C10.189 2.533 9.88233 2.51 9.591 2.51C8.77833 2.51 7.99633 2.671 7.245 2.993C6.49367 3.315 5.83433 3.75967 5.267 4.327C4.69967 4.89433 4.24733 5.56133 3.91 6.328C3.57267 7.09467 3.404 7.92267 3.404 8.812C3.404 9.62467 3.54967 10.3913 3.841 11.112C4.14767 11.8327 4.56933 12.469 5.106 13.021C5.64267 13.573 6.28667 14.01 7.038 14.332C7.78933 14.654 8.61733 14.815 9.522 14.815C9.87467 14.815 10.2887 14.7843 10.764 14.723C11.2547 14.6463 11.7223 14.5237 12.167 14.355V11.181H8.924V9.019H14.49ZM16.2335 12.17C16.2335 11.48 16.3638 10.8283 16.6245 10.215C16.9005 9.60167 17.2685 9.07267 17.7285 8.628C18.1885 8.168 18.7252 7.80767 19.3385 7.547C19.9672 7.271 20.6418 7.133 21.3625 7.133C22.0832 7.133 22.7502 7.271 23.3635 7.547C23.9922 7.80767 24.5288 8.168 24.9735 8.628C25.4335 9.07267 25.7862 9.60167 26.0315 10.215C26.2922 10.8283 26.4225 11.48 26.4225 12.17C26.4225 12.86 26.2922 13.5117 26.0315 14.125C25.7862 14.7383 25.4335 15.275 24.9735 15.735C24.5288 16.195 23.9922 16.563 23.3635 16.839C22.7502 17.0997 22.0755 17.23 21.3395 17.23C20.6342 17.23 19.9672 17.1073 19.3385 16.862C18.7252 16.6167 18.1885 16.2717 17.7285 15.827C17.2685 15.3823 16.9005 14.8533 16.6245 14.24C16.3638 13.6113 16.2335 12.9213 16.2335 12.17ZM18.1885 12.193C18.1885 12.6223 18.2652 13.0287 18.4185 13.412C18.5872 13.78 18.8095 14.1097 19.0855 14.401C19.3768 14.677 19.7065 14.8993 20.0745 15.068C20.4578 15.2213 20.8642 15.298 21.2935 15.298C21.7228 15.298 22.1292 15.2213 22.5125 15.068C22.8958 14.8993 23.2255 14.677 23.5015 14.401C23.7928 14.1097 24.0228 13.78 24.1915 13.412C24.3602 13.0287 24.4445 12.6223 24.4445 12.193C24.4445 11.7637 24.3602 11.3573 24.1915 10.974C24.0228 10.5907 23.7928 10.261 23.5015 9.985C23.2255 9.69367 22.8958 9.47133 22.5125 9.318C22.1292 9.14933 21.7228 9.065 21.2935 9.065C20.8642 9.065 20.4578 9.14933 20.0745 9.318C19.7065 9.47133 19.3768 9.69367 19.0855 9.985C18.8095 10.261 18.5872 10.5907 18.4185 10.974C18.2652 11.3573 18.1885 11.7637 18.1885 12.193ZM46.9236 9.019V16.011C46.2796 16.379 45.5129 16.6703 44.6236 16.885C43.7343 17.0843 42.8296 17.184 41.9096 17.184C40.5909 17.184 39.4026 16.977 38.3446 16.563C37.3019 16.149 36.4049 15.5817 35.6536 14.861C34.9023 14.125 34.3273 13.2587 33.9286 12.262C33.5299 11.2653 33.3306 10.1767 33.3306 8.996C33.3306 7.69267 33.5606 6.50433 34.0206 5.431C34.4959 4.34233 35.1323 3.407 35.9296 2.625C36.7423 1.843 37.6699 1.23733 38.7126 0.807999C39.7706 0.363332 40.8899 0.140999 42.0706 0.140999C42.8679 0.140999 43.7036 0.248332 44.5776 0.462999C45.4516 0.662333 46.2106 0.953666 46.8546 1.337L45.6356 3.384C45.4056 3.246 45.1373 3.12333 44.8306 3.016C44.5393 2.90867 44.2326 2.81667 43.9106 2.74C43.5886 2.66333 43.2666 2.60967 42.9446 2.579C42.6226 2.533 42.3159 2.51 42.0246 2.51C41.2119 2.51 40.4299 2.671 39.6786 2.993C38.9273 3.315 38.2679 3.75967 37.7006 4.327C37.1333 4.89433 36.6809 5.56133 36.3436 6.328C36.0063 7.09467 35.8376 7.92267 35.8376 8.812C35.8376 9.62467 35.9833 10.3913 36.2746 11.112C36.5813 11.8327 37.0029 12.469 37.5396 13.021C38.0763 13.573 38.7203 14.01 39.4716 14.332C40.2229 14.654 41.0509 14.815 41.9556 14.815C42.3083 14.815 42.7223 14.7843 43.1976 14.723C43.6883 14.6463 44.1559 14.5237 44.6006 14.355V11.181H41.3576V9.019H46.9236ZM54.6016 9.663C54.1723 9.663 53.7583 9.72433 53.3596 9.847C52.961 9.95433 52.6006 10.123 52.2786 10.353C51.972 10.583 51.7266 10.8743 51.5426 11.227C51.3586 11.5643 51.2666 11.9553 51.2666 12.4V17H49.3116V7.386H51.0366C51.0673 7.86133 51.0903 8.29833 51.1056 8.697C51.1363 9.08033 51.167 9.46367 51.1976 9.847C51.397 9.433 51.6576 9.05733 51.9796 8.72C52.3016 8.38267 52.6466 8.099 53.0146 7.869C53.3826 7.639 53.743 7.46267 54.0956 7.34C54.4483 7.202 54.7626 7.133 55.0386 7.133L54.6016 9.663ZM64.4165 15.873C63.9565 16.287 63.3969 16.6167 62.7375 16.862C62.0782 17.1073 61.4035 17.23 60.7135 17.23C60.0082 17.23 59.3412 17.0997 58.7125 16.839C58.0992 16.563 57.5625 16.2027 57.1025 15.758C56.6425 15.298 56.2745 14.7613 55.9985 14.148C55.7379 13.5347 55.6075 12.883 55.6075 12.193C55.6075 11.503 55.7379 10.8513 55.9985 10.238C56.2745 9.62467 56.6425 9.088 57.1025 8.628C57.5625 8.168 58.0915 7.80767 58.6895 7.547C59.3029 7.271 59.9545 7.133 60.6445 7.133C61.7332 7.133 62.6762 7.46267 63.4735 8.122C64.2862 8.766 64.8689 9.617 65.2215 10.675C64.7462 10.8437 64.2019 11.0507 63.5885 11.296C62.9752 11.5413 62.3389 11.802 61.6795 12.078C61.0202 12.3387 60.3609 12.5993 59.7015 12.86C59.0422 13.1207 58.4289 13.3583 57.8615 13.573C58.1222 14.0943 58.4979 14.516 58.9885 14.838C59.4945 15.1447 60.0542 15.298 60.6675 15.298C61.0815 15.298 61.4955 15.2213 61.9095 15.068C62.3389 14.9147 62.6839 14.7077 62.9445 14.447L64.4165 15.873ZM62.7605 10.215C62.5765 9.83167 62.2852 9.548 61.8865 9.364C61.4879 9.16467 61.0815 9.065 60.6675 9.065C60.2229 9.065 59.8089 9.14933 59.4255 9.318C59.0575 9.48667 58.7355 9.71667 58.4595 10.008C58.1835 10.284 57.9612 10.606 57.7925 10.974C57.6392 11.342 57.5625 11.7177 57.5625 12.101C57.5625 12.1777 57.5625 12.2313 57.5625 12.262C57.5779 12.2927 57.5855 12.3157 57.5855 12.331C57.9842 12.1777 58.4135 12.009 58.8735 11.825C59.3489 11.6257 59.8165 11.434 60.2765 11.25C60.7365 11.0507 61.1812 10.8667 61.6105 10.698C62.0399 10.514 62.4232 10.353 62.7605 10.215ZM75.063 15.873C74.603 16.287 74.0433 16.6167 73.384 16.862C72.7247 17.1073 72.05 17.23 71.36 17.23C70.6547 17.23 69.9877 17.0997 69.359 16.839C68.7457 16.563 68.209 16.2027 67.749 15.758C67.289 15.298 66.921 14.7613 66.645 14.148C66.3843 13.5347 66.254 12.883 66.254 12.193C66.254 11.503 66.3843 10.8513 66.645 10.238C66.921 9.62467 67.289 9.088 67.749 8.628C68.209 8.168 68.738 7.80767 69.336 7.547C69.9493 7.271 70.601 7.133 71.291 7.133C72.3797 7.133 73.3227 7.46267 74.12 8.122C74.9327 8.766 75.5153 9.617 75.868 10.675C75.3927 10.8437 74.8483 11.0507 74.235 11.296C73.6217 11.5413 72.9853 11.802 72.326 12.078C71.6667 12.3387 71.0073 12.5993 70.348 12.86C69.6887 13.1207 69.0753 13.3583 68.508 13.573C68.7687 14.0943 69.1443 14.516 69.635 14.838C70.141 15.1447 70.7007 15.298 71.314 15.298C71.728 15.298 72.142 15.2213 72.556 15.068C72.9853 14.9147 73.3303 14.7077 73.591 14.447L75.063 15.873ZM73.407 10.215C73.223 9.83167 72.9317 9.548 72.533 9.364C72.1343 9.16467 71.728 9.065 71.314 9.065C70.8693 9.065 70.4553 9.14933 70.072 9.318C69.704 9.48667 69.382 9.71667 69.106 10.008C68.83 10.284 68.6077 10.606 68.439 10.974C68.2857 11.342 68.209 11.7177 68.209 12.101C68.209 12.1777 68.209 12.2313 68.209 12.262C68.2243 12.2927 68.232 12.3157 68.232 12.331C68.6307 12.1777 69.06 12.009 69.52 11.825C69.9953 11.6257 70.463 11.434 70.923 11.25C71.383 11.0507 71.8277 10.8667 72.257 10.698C72.6863 10.514 73.0697 10.353 73.407 10.215ZM77.5675 7.386H79.2925C79.3232 7.86133 79.3462 8.29833 79.3615 8.697C79.3922 9.08033 79.4228 9.46367 79.4535 9.847C79.8062 9.019 80.3045 8.35967 80.9485 7.869C81.6078 7.37833 82.4128 7.133 83.3635 7.133C84.3295 7.133 85.1038 7.40133 85.6865 7.938C86.2692 8.47467 86.5758 9.16467 86.6065 10.008V17H84.6285V10.905C84.5978 10.4143 84.4292 10.0003 84.1225 9.663C83.8158 9.31033 83.3328 9.11867 82.6735 9.088C82.2135 9.088 81.7918 9.17233 81.4085 9.341C81.0252 9.49433 80.6955 9.709 80.4195 9.985C80.1435 10.261 79.9212 10.5907 79.7525 10.974C79.5992 11.3573 79.5225 11.779 79.5225 12.239V17H77.5675V7.386Z" fill="#FD6F3D"/>
</svg>
