<svg width="133" height="27" viewBox="0 0 133 27" fill="none" xmlns="http://www.w3.org/2000/svg">
<path d="M1.98 6.95C2.064 7.154 2.202 7.49 2.394 7.958C2.586 8.414 2.802 8.936 3.042 9.524C3.294 10.112 3.552 10.736 3.816 11.396C4.092 12.056 4.35 12.68 4.59 13.268C4.83 13.856 5.046 14.384 5.238 14.852C5.43 15.308 5.568 15.638 5.652 15.842C5.664 15.866 5.694 15.95 5.742 16.094C5.79 16.238 5.826 16.364 5.85 16.472L6.03 15.842C6.114 15.638 6.252 15.308 6.444 14.852C6.636 14.384 6.852 13.856 7.092 13.268C7.332 12.68 7.584 12.056 7.848 11.396C8.124 10.736 8.382 10.112 8.622 9.524C8.874 8.936 9.096 8.414 9.288 7.958C9.48 7.49 9.618 7.154 9.702 6.95H11.646C11.574 7.118 11.442 7.424 11.25 7.868C11.07 8.3 10.848 8.828 10.584 9.452C10.32 10.076 10.026 10.76 9.702 11.504C9.39 12.248 9.066 13.004 8.73 13.772C8.406 14.54 8.082 15.296 7.758 16.04C7.446 16.784 7.158 17.468 6.894 18.092C6.642 18.716 6.42 19.25 6.228 19.694C6.048 20.126 5.922 20.426 5.85 20.594L0.036 6.95H1.98ZM11.9211 9.596C11.9211 9.308 12.0231 9.068 12.2271 8.876C12.4431 8.684 12.6711 8.588 12.9111 8.588C13.1511 8.588 13.3731 8.684 13.5771 8.876C13.7811 9.068 13.8831 9.308 13.8831 9.596C13.8831 9.884 13.7811 10.124 13.5771 10.316C13.3731 10.496 13.1511 10.586 12.9111 10.586C12.6711 10.586 12.4431 10.496 12.2271 10.316C12.0231 10.124 11.9211 9.884 11.9211 9.596ZM13.6491 20H12.1191V12.476H13.6491V20ZM22.1825 19.118C21.8225 19.442 21.3845 19.7 20.8685 19.892C20.3525 20.084 19.8245 20.18 19.2845 20.18C18.7325 20.18 18.2105 20.078 17.7185 19.874C17.2385 19.658 16.8185 19.376 16.4585 19.028C16.0985 18.668 15.8105 18.248 15.5945 17.768C15.3905 17.288 15.2885 16.778 15.2885 16.238C15.2885 15.698 15.3905 15.188 15.5945 14.708C15.8105 14.228 16.0985 13.808 16.4585 13.448C16.8185 13.088 17.2325 12.806 17.7005 12.602C18.1805 12.386 18.6905 12.278 19.2305 12.278C20.0825 12.278 20.8205 12.536 21.4445 13.052C22.0805 13.556 22.5365 14.222 22.8125 15.05C22.4405 15.182 22.0145 15.344 21.5345 15.536C21.0545 15.728 20.5565 15.932 20.0405 16.148C19.5245 16.352 19.0085 16.556 18.4925 16.76C17.9765 16.964 17.4965 17.15 17.0525 17.318C17.2565 17.726 17.5505 18.056 17.9345 18.308C18.3305 18.548 18.7685 18.668 19.2485 18.668C19.5725 18.668 19.8965 18.608 20.2205 18.488C20.5565 18.368 20.8265 18.206 21.0305 18.002L22.1825 19.118ZM20.8865 14.69C20.7425 14.39 20.5145 14.168 20.2025 14.024C19.8905 13.868 19.5725 13.79 19.2485 13.79C18.9005 13.79 18.5765 13.856 18.2765 13.988C17.9885 14.12 17.7365 14.3 17.5205 14.528C17.3045 14.744 17.1305 14.996 16.9985 15.284C16.8785 15.572 16.8185 15.866 16.8185 16.166C16.8185 16.226 16.8185 16.268 16.8185 16.292C16.8305 16.316 16.8365 16.334 16.8365 16.346C17.1485 16.226 17.4845 16.094 17.8445 15.95C18.2165 15.794 18.5825 15.644 18.9425 15.5C19.3025 15.344 19.6505 15.2 19.9865 15.068C20.3225 14.924 20.6225 14.798 20.8865 14.69ZM28.1586 13.682L27.6006 12.476H28.9326C29.2806 13.232 29.5746 13.886 29.8146 14.438C30.0546 14.978 30.2586 15.452 30.4266 15.86C30.5946 16.256 30.7326 16.592 30.8406 16.868C30.9486 17.144 31.0386 17.378 31.1106 17.57C31.1826 17.21 31.2666 16.886 31.3626 16.598C31.4706 16.298 31.6026 15.968 31.7586 15.608C31.9146 15.236 32.1006 14.81 32.3166 14.33C32.5446 13.838 32.8146 13.22 33.1266 12.476H34.6746L31.1106 20.45C30.8946 20.006 30.6906 19.568 30.4986 19.136C30.3186 18.692 30.1386 18.254 29.9586 17.822C29.7906 17.39 29.6106 16.958 29.4186 16.526C29.2386 16.094 29.0406 15.65 28.8246 15.194L26.5386 20.45L23.1366 12.476H24.6846C24.9966 13.22 25.2546 13.838 25.4586 14.33C25.6626 14.822 25.8306 15.248 25.9626 15.608C26.1066 15.968 26.2206 16.298 26.3046 16.598C26.3886 16.886 26.4666 17.21 26.5386 17.57C26.5866 17.426 26.6406 17.264 26.7006 17.084C26.7726 16.904 26.8626 16.676 26.9706 16.4C27.0906 16.112 27.2466 15.752 27.4386 15.32C27.6306 14.888 27.8706 14.342 28.1586 13.682ZM40.5024 6.374C40.6104 6.542 40.8324 6.866 41.1684 7.346C41.5164 7.814 41.9124 8.36 42.3564 8.984C42.8124 9.608 43.2924 10.274 43.7964 10.982C44.3004 11.678 44.7744 12.338 45.2184 12.962C45.6624 13.574 46.0464 14.108 46.3704 14.564C46.7064 15.02 46.9284 15.32 47.0364 15.464C47.0724 15.404 47.1864 15.242 47.3784 14.978C47.5704 14.714 47.8044 14.384 48.0804 13.988C48.3684 13.592 48.6924 13.148 49.0524 12.656C49.4124 12.152 49.7784 11.642 50.1504 11.126C50.5344 10.598 50.9064 10.076 51.2664 9.56C51.6384 9.044 51.9804 8.576 52.2924 8.156C52.6044 7.724 52.8684 7.352 53.0844 7.04C53.3124 6.716 53.4744 6.494 53.5704 6.374V20H51.4824V12.692C51.4824 12.596 51.4884 12.494 51.5004 12.386C51.5244 12.278 51.5364 12.2 51.5364 12.152C51.4284 12.296 51.2544 12.542 51.0144 12.89C50.7864 13.226 50.5164 13.616 50.2044 14.06C49.9044 14.492 49.5864 14.954 49.2504 15.446C48.9144 15.926 48.5964 16.382 48.2964 16.814C47.9964 17.246 47.7324 17.63 47.5044 17.966C47.2764 18.29 47.1204 18.518 47.0364 18.65C46.9524 18.542 46.7844 18.32 46.5324 17.984C46.2924 17.636 46.0044 17.234 45.6684 16.778C45.3444 16.322 44.9964 15.836 44.6244 15.32C44.2644 14.804 43.9284 14.324 43.6164 13.88C43.3044 13.436 43.0344 13.058 42.8064 12.746C42.5784 12.422 42.4464 12.224 42.4104 12.152C42.4104 12.2 42.4164 12.278 42.4284 12.386C42.4524 12.494 42.4644 12.596 42.4644 12.692V20H40.5024V6.374ZM55.3842 16.22C55.3842 15.68 55.4862 15.17 55.6902 14.69C55.9062 14.21 56.1942 13.796 56.5542 13.448C56.9142 13.088 57.3342 12.806 57.8142 12.602C58.3062 12.386 58.8342 12.278 59.3982 12.278C59.9622 12.278 60.4842 12.386 60.9642 12.602C61.4562 12.806 61.8762 13.088 62.2242 13.448C62.5842 13.796 62.8602 14.21 63.0522 14.69C63.2562 15.17 63.3582 15.68 63.3582 16.22C63.3582 16.76 63.2562 17.27 63.0522 17.75C62.8602 18.23 62.5842 18.65 62.2242 19.01C61.8762 19.37 61.4562 19.658 60.9642 19.874C60.4842 20.078 59.9562 20.18 59.3802 20.18C58.8282 20.18 58.3062 20.084 57.8142 19.892C57.3342 19.7 56.9142 19.43 56.5542 19.082C56.1942 18.734 55.9062 18.32 55.6902 17.84C55.4862 17.348 55.3842 16.808 55.3842 16.22ZM56.9142 16.238C56.9142 16.574 56.9742 16.892 57.0942 17.192C57.2262 17.48 57.4002 17.738 57.6162 17.966C57.8442 18.182 58.1022 18.356 58.3902 18.488C58.6902 18.608 59.0082 18.668 59.3442 18.668C59.6802 18.668 59.9982 18.608 60.2982 18.488C60.5982 18.356 60.8562 18.182 61.0722 17.966C61.3002 17.738 61.4802 17.48 61.6122 17.192C61.7442 16.892 61.8102 16.574 61.8102 16.238C61.8102 15.902 61.7442 15.584 61.6122 15.284C61.4802 14.984 61.3002 14.726 61.0722 14.51C60.8562 14.282 60.5982 14.108 60.2982 13.988C59.9982 13.856 59.6802 13.79 59.3442 13.79C59.0082 13.79 58.6902 13.856 58.3902 13.988C58.1022 14.108 57.8442 14.282 57.6162 14.51C57.4002 14.726 57.2262 14.984 57.0942 15.284C56.9742 15.584 56.9142 15.902 56.9142 16.238ZM69.1341 14.258C68.7981 14.258 68.4741 14.306 68.1621 14.402C67.8501 14.486 67.5681 14.618 67.3161 14.798C67.0761 14.978 66.8841 15.206 66.7401 15.482C66.5961 15.746 66.5241 16.052 66.5241 16.4V20H64.9941V12.476H66.3441C66.3681 12.848 66.3861 13.19 66.3981 13.502C66.4221 13.802 66.4461 14.102 66.4701 14.402C66.6261 14.078 66.8301 13.784 67.0821 13.52C67.3341 13.256 67.6041 13.034 67.8921 12.854C68.1801 12.674 68.4621 12.536 68.7381 12.44C69.0141 12.332 69.2601 12.278 69.4761 12.278L69.1341 14.258ZM76.8153 19.118C76.4553 19.442 76.0173 19.7 75.5013 19.892C74.9853 20.084 74.4573 20.18 73.9173 20.18C73.3653 20.18 72.8433 20.078 72.3513 19.874C71.8713 19.658 71.4513 19.376 71.0913 19.028C70.7313 18.668 70.4433 18.248 70.2273 17.768C70.0233 17.288 69.9213 16.778 69.9213 16.238C69.9213 15.698 70.0233 15.188 70.2273 14.708C70.4433 14.228 70.7313 13.808 71.0913 13.448C71.4513 13.088 71.8653 12.806 72.3333 12.602C72.8133 12.386 73.3233 12.278 73.8633 12.278C74.7153 12.278 75.4533 12.536 76.0773 13.052C76.7133 13.556 77.1693 14.222 77.4453 15.05C77.0733 15.182 76.6473 15.344 76.1673 15.536C75.6873 15.728 75.1893 15.932 74.6733 16.148C74.1573 16.352 73.6413 16.556 73.1253 16.76C72.6093 16.964 72.1293 17.15 71.6853 17.318C71.8893 17.726 72.1833 18.056 72.5673 18.308C72.9633 18.548 73.4013 18.668 73.8813 18.668C74.2053 18.668 74.5293 18.608 74.8533 18.488C75.1893 18.368 75.4593 18.206 75.6633 18.002L76.8153 19.118ZM75.5193 14.69C75.3753 14.39 75.1473 14.168 74.8353 14.024C74.5233 13.868 74.2053 13.79 73.8813 13.79C73.5333 13.79 73.2093 13.856 72.9093 13.988C72.6213 14.12 72.3693 14.3 72.1533 14.528C71.9373 14.744 71.7633 14.996 71.6313 15.284C71.5113 15.572 71.4513 15.866 71.4513 16.166C71.4513 16.226 71.4513 16.268 71.4513 16.292C71.4633 16.316 71.4693 16.334 71.4693 16.346C71.7813 16.226 72.1173 16.094 72.4773 15.95C72.8493 15.794 73.2153 15.644 73.5753 15.5C73.9353 15.344 74.2833 15.2 74.6193 15.068C74.9553 14.924 75.2553 14.798 75.5193 14.69Z" fill="white"/>
<path d="M132.53 15.5303C132.823 15.2374 132.823 14.7626 132.53 14.4697L127.757 9.6967C127.464 9.40381 126.99 9.40381 126.697 9.6967C126.404 9.98959 126.404 10.4645 126.697 10.7574L130.939 15L126.697 19.2426C126.404 19.5355 126.404 20.0104 126.697 20.3033C126.99 20.5962 127.464 20.5962 127.757 20.3033L132.53 15.5303ZM92 15.75H132V14.25H92V15.75Z" fill="white"/>
</svg>
